<?xml version="1.0" encoding="UTF-8" standalone="no"?>
<!-- Created with Inkscape (http://www.inkscape.org/) -->

<svg
   xmlns:dc="http://purl.org/dc/elements/1.1/"
   xmlns:cc="http://creativecommons.org/ns#"
   xmlns:rdf="http://www.w3.org/1999/02/22-rdf-syntax-ns#"
   xmlns:svg="http://www.w3.org/2000/svg"
   xmlns="http://www.w3.org/2000/svg"
   xmlns:sodipodi="http://sodipodi.sourceforge.net/DTD/sodipodi-0.dtd"
   xmlns:inkscape="http://www.inkscape.org/namespaces/inkscape"
   width="297mm"
   height="210mm"
   viewBox="0 0 1052.3622 744.09448"
   id="svg44887"
   version="1.1"
   inkscape:version="0.91 r13725"
   sodipodi:docname="phs.svg">
  <defs
     id="defs44889" />
  <sodipodi:namedview
     id="base"
     pagecolor="#ffffff"
     bordercolor="#666666"
     borderopacity="1.0"
     inkscape:pageopacity="0.0"
     inkscape:pageshadow="2"
     inkscape:zoom="0.35"
     inkscape:cx="375"
     inkscape:cy="520"
     inkscape:document-units="px"
     inkscape:current-layer="layer1"
     showgrid="false"
     inkscape:window-width="1360"
     inkscape:window-height="719"
     inkscape:window-x="0"
     inkscape:window-y="25"
     inkscape:window-maximized="1" />
  <metadata
     id="metadata44892">
    <rdf:RDF>
      <cc:Work
         rdf:about="">
        <dc:format>image/svg+xml</dc:format>
        <dc:type
           rdf:resource="http://purl.org/dc/dcmitype/StillImage" />
        <dc:title></dc:title>
      </cc:Work>
    </rdf:RDF>
  </metadata>
  <g
     inkscape:label="Layer 1"
     inkscape:groupmode="layer"
     id="layer1"
     transform="translate(0,-308.26772)">
    <path
       style="fill:#1e73be;fill-opacity:1"
       d="m 327.93875,785.7418 0,-6.91837 22.13878,0 22.13877,0 0,-8.30204 0,-8.30204 -22.83061,0 -22.83061,0 0,7.6102 0,7.61021 -6.91837,0 -6.91837,0 0,-14.52858 0,-14.52857 29.74898,0 29.74898,0 0,-14.52857 0,-14.52857 6.91837,0 6.91837,0 0,36.66735 0,36.66734 -29.05715,0 -29.05714,0 0,-6.91836 z m 343.15102,0 0,-6.91837 6.91837,0 6.91837,0 0,6.91837 0,6.91836 -6.91837,0 -6.91837,0 0,-6.91836 z m 59.49796,-8.30204 0,-15.22041 -15.22041,0 -15.22041,0 0,-6.91837 0,-6.91837 15.22041,0 15.22041,0 0,-14.52857 0,-14.52857 6.91837,0 6.91837,0 0,36.66735 0,36.66734 -6.91837,0 -6.91837,0 0,-15.2204 z m -44.27755,-6.91837 0,-6.91837 6.22653,0 6.22653,0 0,6.91837 0,6.91837 -6.22653,0 -6.22653,0 0,-6.91837 z m -642.024483,-13.83674 0,-6.91836 30.509867,0 30.509866,0 -0.41497,-7.95613 -0.41497,-7.95612 -14.874487,-0.39273 -14.87449,-0.39272 0,-6.13292 0,-6.13291 14.87449,-0.39272 14.874487,-0.39273 0.41497,-7.95613 0.41497,-7.95612 -30.509866,0 -30.509867,0 0,-6.91836 0,-6.91837 36.667347,0 36.667346,0 0,36.66734 0,36.66735 -36.667346,0 -36.667347,0 0,-6.91837 z m 179.877543,-29.74898 0,-36.66734 6.91837,0 6.91836,0 0,15.25468 0,15.25468 22.4847,-0.38019 22.48469,-0.38019 0.39273,-14.87449 0.39273,-14.87449 6.87156,0 6.87155,0 0,36.66734 0,36.66735 -36.66734,0 -36.66735,0 0,-36.66735 z m 59.49796,14.52858 0,-8.30204 -22.83061,0 -22.83062,0 0,8.30204 0,8.30204 22.83062,0 22.83061,0 0,-8.30204 z m 118.99592,15.2204 0,-6.91836 29.74898,0 29.74898,0 0,-8.30204 0,-8.30204 -29.74898,0 -29.74898,0 0,-21.44694 0,-21.44694 36.66734,0 36.66735,0 0,6.91837 0,6.91836 -29.74898,0 -29.74898,0 0,8.30204 0,8.30204 29.74898,0 29.74898,0 0,21.44694 0,21.44694 -36.66735,0 -36.66734,0 0,-6.91837 z m 178.49388,0 0,-6.91836 29.74898,0 29.74897,0 0,-8.30204 0,-8.30204 -14.52857,0 -14.52857,0 0,-6.22654 0,-6.22653 14.52857,0 14.52857,0 0,-8.30204 0,-8.30204 -29.74897,0 -29.74898,0 0,-6.91836 0,-6.91837 36.66734,0 36.66735,0 0,36.66734 0,36.66735 -36.66735,0 -36.66734,0 0,-6.91837 z m 178.49387,0 0,-6.91836 29.74898,0 29.74898,0 0,-22.83062 0,-22.83061 -29.74898,0 -29.74898,0 0,-6.91836 0,-6.91837 36.66735,0 36.66735,0 0,36.66734 0,36.66735 -36.66735,0 -36.66735,0 0,-6.91837 z m 179.87755,-29.74898 0,-36.66734 6.17973,0 6.17972,0 0.39272,14.87449 0.39273,14.87449 22.83061,0 22.83062,0 0.39273,-14.87449 0.39272,-14.87449 6.8716,0 6.8715,0 0,36.66734 0,36.66735 -6.9183,0 -6.91842,0 0,-15.25386 0,-15.25387 -23.17653,0.37938 -23.17653,0.37937 -0.39273,14.87449 -0.39272,14.87449 -6.17972,0 -6.17973,0 0,-36.66735 z m -253.21224,13.1449 0,-6.91836 6.22653,0 6.22653,0 0,6.91836 0,6.91837 -6.22653,0 -6.22653,0 0,-6.91837 z m -552.08571,-12.45306 0,-6.91837 29.74897,0 29.74898,0 0,-22.83061 0,-22.83061 -29.74898,0 -29.74897,0 0,-6.91837 0,-6.91837 36.66734,0 36.66735,0 0,36.66735 0,36.66735 -36.66735,0 -36.66734,0 0,-6.91837 z m 372.20816,0 0,-6.91837 22.83061,0 22.83061,0 0,-7.6102 0,-7.6102 -23.52245,0 -23.52245,0 0,6.91836 0,6.91837 -6.22653,0 -6.22653,0 0,-13.83673 0,-13.83674 6.91837,0 6.91837,0 0,-7.6102 0,-7.61021 6.91837,0 6.91836,0 0,7.61021 0,7.6102 15.91225,0 15.91224,0 0,-15.22041 0,-15.22041 6.22653,0 6.22653,0 0,36.66735 0,36.66735 -29.05714,0 -29.05714,0 0,-6.91837 z m 343.15102,-29.74898 0,-36.66735 6.91837,0 6.91836,0 0,15.22041 0,15.22041 22.83062,0 22.83061,0 0,-15.22041 0,-15.22041 6.91837,0 6.91836,0 0,36.66735 0,36.66735 -36.66734,0 -36.66735,0 0,-36.66735 z m 59.49796,15.22041 0,-7.6102 -22.83061,0 -22.83062,0 0,7.6102 0,7.6102 22.83062,0 22.83061,0 0,-7.6102 z m -237.99184,13.1449 0,-6.91837 6.91837,0 6.91837,0 0,6.91837 0,6.91837 -6.91837,0 -6.91837,0 0,-6.91837 z m -178.49388,-58.11429 0,-6.91837 6.22653,0 6.22653,0 0,6.91837 0,6.91837 -6.22653,0 -6.22653,0 0,-6.91837 z m -268.43265,-31.13265 0,-36.66735 29.05714,0 29.05715,0 0,6.91837 0,6.91837 -22.13878,0 -22.13878,0 0,8.30204 0,8.30204 22.83062,0 22.83061,0 0,-7.61021 0,-7.6102 6.91837,0 6.91836,0 0,14.52857 0,14.52857 -7.6102,0 -7.6102,0 0,6.91837 0,6.91837 -6.91837,0 -6.91837,0 0,-6.91837 0,-6.91837 -15.22041,0 -15.22041,0 0,14.52857 0,14.52858 -6.91836,0 -6.91837,0 0,-36.66735 z m 59.49796,29.74898 0,-6.91837 6.91837,0 6.91836,0 0,6.91837 0,6.91837 -6.91836,0 -6.91837,0 0,-6.91837 z m 118.99592,0 0,-6.91837 29.74898,0 29.74898,0 0,-7.6102 0,-7.61021 -29.74898,0 -29.74898,0 0,-22.13877 0,-22.13878 36.66734,0 36.66735,0 0,6.91837 0,6.91837 -29.74898,0 -29.74898,0 0,8.30204 0,8.30204 29.74898,0 29.74898,0 0,21.44694 0,21.44694 -36.66735,0 -36.66734,0 0,-6.91837 z m 208.93469,-25.59796 0,-29.74898 -15.22041,0 -15.2204,0 0,-6.91837 0,-6.91836 36.66734,0 36.66735,0 0,6.91836 0,6.91837 -14.52857,0 -14.52857,0 0,29.74898 0,29.74898 -6.91837,0 -6.91837,0 0,-29.74898 z m 148.05306,-6.91837 0,-36.66734 6.91837,0 6.91837,0 0,7.6102 0,7.6102 7.6102,0 7.61021,0 0,6.91837 0,6.91837 -7.61021,0 -7.6102,0 0,22.13877 0,22.13878 -6.91837,0 -6.91837,0 0,-36.66735 z m 59.49796,29.05714 0,-7.6102 -6.91836,0 -6.91837,0 0,-6.91837 0,-6.91836 6.91837,0 6.91836,0 0,-22.13878 0,-22.13877 6.91837,0 6.91837,0 0,36.66734 0,36.66735 -6.91837,0 -6.91837,0 0,-7.61021 z m -506.42449,-24.85931 0,-6.17972 14.87449,-0.39273 14.87449,-0.39272 0.37938,-23.17654 0.37937,-23.17653 -15.25386,0 -15.25387,0 0,-6.22653 0,-6.22653 36.66735,0 36.66735,0 0,6.22653 0,6.22653 -14.52858,0 -14.52857,0 0,23.52245 0,23.52245 14.52857,0 14.52858,0 0,6.22653 0,6.22653 -36.66735,0 -36.66735,0 0,-6.17972 z m -178.49387,-33.25497 0,-36.66735 29.05714,0 29.05714,0 0,6.91837 0,6.91837 -22.13878,0 -22.13877,0 0,8.30204 0,8.30204 22.83061,0 22.83061,0 0,-7.61021 0,-7.6102 6.91837,0 6.91837,0 0,14.52857 0,14.52857 -29.74898,0 -29.74898,0 0,14.52857 0,14.52858 -6.91836,0 -6.91837,0 0,-36.66735 z m 358.37142,0 0,-36.66735 6.22653,0 6.22653,0 0,15.22041 0,15.22041 23.52245,0 23.52245,0 0,-15.22041 0,-15.22041 6.22653,0 6.22653,0 0,36.66735 0,36.66735 -6.22653,0 -6.22653,0 0,-14.52858 0,-14.52857 -23.52245,0 -23.52245,0 0,14.52857 0,14.52858 -6.22653,0 -6.22653,0 0,-36.66735 z m 178.49388,29.74898 0,-6.91837 14.52857,0 14.52857,0 0,-22.83061 0,-22.83061 -14.52857,0 -14.52857,0 0,-6.91837 0,-6.91837 36.66735,0 36.66735,0 0,6.91837 0,6.91837 -15.22041,0 -15.22041,0 0,22.83061 0,22.83061 15.22041,0 15.22041,0 0,6.91837 0,6.91837 -36.66735,0 -36.66735,0 0,-6.91837 z m 178.49388,-29.74898 0,-36.66735 36.66735,0 36.66734,0 0,36.66735 0,36.66735 -6.91836,0 -6.91837,0 0,-14.52858 0,-14.52857 -22.83061,0 -22.83062,0 0,14.52857 0,14.52858 -6.91836,0 -6.91837,0 0,-36.66735 z m 59.49796,-14.52857 0,-8.30204 -22.83061,0 -22.83062,0 0,8.30204 0,8.30204 22.83062,0 22.83061,0 0,-8.30204 z m -118.99592,43.58571 0,-6.22653 6.91837,0 6.91836,0 0,6.22653 0,6.22653 -6.91836,0 -6.91837,0 0,-6.22653 z"
       id="path44906"
       inkscape:connector-curvature="0" />
  </g>
</svg>
